<?xml version="1.0" encoding="UTF-8"?>
<svg xmlns="http://www.w3.org/2000/svg" xmlns:xlink="http://www.w3.org/1999/xlink" width="722pt" height="218pt" viewBox="0 0 722 218" version="1.1">
<g id="surface1">
<path style="fill:none;stroke-width:0.796993;stroke-linecap:butt;stroke-linejoin:miter;stroke:rgb(100%,100%,100%);stroke-opacity:1;stroke-miterlimit:10;" d="M 1.445313 2177.265625 C 561.367188 2177.265625 1122.148438 2177.265625 1682.070313 2177.265625 C 1682.070313 1518.554688 1682.070313 860.625 1682.070313 201.914063 C 1122.148438 201.914063 561.367188 201.914063 1.445313 201.914063 C 1.445313 860.625 1.445313 1518.554688 1.445313 2177.265625 Z M 1.445313 2177.265625 " transform="matrix(0.1,0,0,-0.1,0,218)"/>
<path style="fill:none;stroke-width:0.796993;stroke-linecap:butt;stroke-linejoin:miter;stroke:rgb(64.646912%,10.205078%,21.556091%);stroke-opacity:1;stroke-miterlimit:10;" d="M 47.617188 2131.054688 C 398.90625 2131.054688 743.789063 2131.054688 1092.65625 2131.054688 C 1274.257813 2131.054688 1451.09375 2131.054688 1635.898438 2131.054688 C 1636.679688 1787.773438 1635.898438 1450.859375 1636.679688 1109.921875 C 1635.078125 1057.382813 1639.0625 1003.203125 1631.914063 950.625 C 1608.789063 769.804688 1541.09375 622.460938 1443.90625 511.757813 C 1368.242188 425.742188 1273.476563 358.828125 1160.351563 310.234375 C 1054.414063 267.226563 947.695313 240.15625 797.929688 244.921875 C 728.632813 248.125 652.1875 261.640625 596.445313 279.960938 C 453.867188 324.570313 342.34375 401.835938 253.945313 502.1875 C 165.507813 603.359375 97.03125 729.21875 61.171875 881.328125 C 54.804688 909.21875 49.21875 937.109375 47.617188 974.53125 C 47.617188 1322.617188 47.617188 1669.882813 47.617188 2017.96875 C 47.617188 2055.390625 47.617188 2091.25 47.617188 2131.054688 Z M 47.617188 2131.054688 " transform="matrix(0.1,0,0,-0.1,0,218)"/>
<path style=" stroke:none;fill-rule:nonzero;fill:rgb(92.89856%,10.998535%,14.099121%);fill-opacity:1;" d="M 4.761719 4.894531 C 39.890625 4.894531 74.378906 4.894531 109.265625 4.894531 C 127.425781 4.894531 145.109375 4.894531 163.589844 4.894531 C 163.667969 39.222656 163.589844 72.914063 163.667969 107.007813 C 163.507813 112.261719 163.90625 117.679688 163.191406 122.9375 C 160.878906 141.019531 154.109375 155.753906 144.390625 166.824219 C 136.824219 175.425781 127.347656 182.117188 116.035156 186.976563 C 105.441406 191.277344 94.769531 193.984375 79.792969 193.507813 C 72.863281 193.1875 65.21875 191.835938 59.644531 190.003906 C 45.386719 185.542969 34.234375 177.816406 25.394531 167.78125 C 16.550781 157.664063 9.703125 145.078125 6.117188 129.867188 C 5.480469 127.078125 4.921875 124.289063 4.761719 120.546875 C 4.761719 85.738281 4.761719 51.011719 4.761719 16.203125 C 4.761719 12.460938 4.761719 8.875 4.761719 4.894531 "/>
<path style="fill:none;stroke-width:0.796993;stroke-linecap:butt;stroke-linejoin:miter;stroke:rgb(0%,0%,0%);stroke-opacity:1;stroke-miterlimit:10;" d="M 143.203125 2042.65625 C 492.109375 2044.257813 833.789063 2042.65625 1180.273438 2043.4375 C 1298.164063 2042.65625 1421.601563 2045.039063 1537.109375 2042.65625 C 1537.890625 1786.171875 1538.710938 1533.671875 1536.328125 1276.40625 C 1382.578125 1276.40625 1218.515625 1276.40625 1060.78125 1276.40625 C 756.523438 1276.40625 448.28125 1276.40625 146.40625 1276.40625 C 139.21875 1328.164063 143.203125 1377.578125 142.421875 1428.554688 C 143.203125 1633.242188 141.601563 1836.367188 143.203125 2042.65625 Z M 143.203125 2042.65625 " transform="matrix(0.1,0,0,-0.1,0,218)"/>
<path style=" stroke:none;fill-rule:nonzero;fill:rgb(0%,0%,0%);fill-opacity:1;" d="M 14.320313 13.734375 C 49.210938 13.574219 83.378906 13.734375 118.027344 13.65625 C 129.816406 13.734375 142.160156 13.496094 153.710938 13.734375 C 153.789063 39.382813 153.871094 64.632813 153.632813 90.359375 C 138.257813 90.359375 121.851563 90.359375 106.078125 90.359375 C 75.652344 90.359375 44.828125 90.359375 14.640625 90.359375 C 13.921875 85.183594 14.320313 80.242188 14.242188 75.144531 C 14.320313 54.675781 14.160156 34.363281 14.320313 13.734375 "/>
<path style="fill:none;stroke-width:0.796993;stroke-linecap:butt;stroke-linejoin:miter;stroke:rgb(99.609375%,99.609375%,99.609375%);stroke-opacity:1;stroke-miterlimit:10;" d="M 218.90625 1975.742188 C 253.125 1975.742188 297.734375 1975.742188 335.195313 1975.742188 C 335.976563 1864.257813 335.195313 1743.164063 335.195313 1627.695313 C 335.195313 1575.898438 335.195313 1528.90625 335.195313 1473.945313 C 398.90625 1473.945313 455.429688 1473.945313 520.78125 1473.945313 C 520.78125 1434.921875 521.5625 1382.34375 520.78125 1343.320313 C 445.117188 1343.320313 376.601563 1343.320313 304.101563 1343.320313 C 275.429688 1343.320313 243.554688 1343.320313 218.90625 1343.320313 C 218.90625 1475.546875 218.90625 1618.90625 218.90625 1755.117188 C 218.90625 1827.617188 218.90625 1907.265625 218.90625 1975.742188 Z M 218.90625 1975.742188 " transform="matrix(0.1,0,0,-0.1,0,218)"/>
<path style=" stroke:none;fill-rule:nonzero;fill:rgb(99.609375%,99.609375%,99.609375%);fill-opacity:1;" d="M 21.890625 20.425781 C 25.3125 20.425781 29.773438 20.425781 33.519531 20.425781 C 33.597656 31.574219 33.519531 43.683594 33.519531 55.230469 C 33.519531 60.410156 33.519531 65.109375 33.519531 70.605469 C 39.890625 70.605469 45.542969 70.605469 52.078125 70.605469 C 52.078125 74.507813 52.15625 79.765625 52.078125 83.667969 C 44.511719 83.667969 37.660156 83.667969 30.410156 83.667969 C 27.542969 83.667969 24.355469 83.667969 21.890625 83.667969 C 21.890625 70.445313 21.890625 56.109375 21.890625 42.488281 C 21.890625 35.238281 21.890625 27.273438 21.890625 20.425781 "/>
<path style="fill:none;stroke-width:0.796993;stroke-linecap:butt;stroke-linejoin:miter;stroke:rgb(99.609375%,99.609375%,99.609375%);stroke-opacity:1;stroke-miterlimit:10;" d="M 566.171875 1975.742188 C 606.796875 1976.5625 649.023438 1976.5625 684.0625 1976.5625 C 684.0625 1853.085938 684.0625 1722.460938 684.0625 1595.820313 C 686.445313 1543.242188 671.289063 1468.359375 726.25 1465.195313 C 751.757813 1469.960938 763.710938 1485.898438 762.890625 1508.984375 C 762.109375 1662.734375 762.109375 1824.414063 762.890625 1976.5625 C 808.320313 1975.742188 835.390625 1975.742188 880.78125 1976.5625 C 880.78125 1821.210938 880.78125 1658.75 880.78125 1500.234375 C 880.78125 1481.09375 882.382813 1461.210938 875.234375 1447.65625 C 848.945313 1381.5625 814.6875 1328.984375 718.320313 1330.585938 C 664.921875 1337.734375 635.46875 1354.453125 609.179688 1383.125 C 586.09375 1413.398438 562.1875 1442.890625 566.171875 1500.234375 C 566.171875 1625.273438 566.171875 1749.53125 566.171875 1874.609375 C 566.171875 1908.828125 566.171875 1945.46875 566.171875 1975.742188 Z M 566.171875 1975.742188 " transform="matrix(0.1,0,0,-0.1,0,218)"/>
<path style=" stroke:none;fill-rule:nonzero;fill:rgb(99.609375%,99.609375%,99.609375%);fill-opacity:1;" d="M 56.617188 20.425781 C 60.679688 20.34375 64.902344 20.34375 68.40625 20.34375 C 68.40625 32.691406 68.40625 45.753906 68.40625 58.417969 C 68.644531 63.675781 67.128906 71.164063 72.625 71.480469 C 75.175781 71.003906 76.371094 69.410156 76.289063 67.101563 C 76.210938 51.726563 76.210938 35.558594 76.289063 20.34375 C 80.832031 20.425781 83.539063 20.425781 88.078125 20.34375 C 88.078125 35.878906 88.078125 52.125 88.078125 67.976563 C 88.078125 69.890625 88.238281 71.878906 87.523438 73.234375 C 84.894531 79.84375 81.46875 85.101563 71.832031 84.941406 C 66.492188 84.226563 63.546875 82.554688 60.917969 79.6875 C 58.609375 76.660156 56.21875 73.710938 56.617188 67.976563 C 56.617188 55.472656 56.617188 43.046875 56.617188 30.539063 C 56.617188 27.117188 56.617188 23.453125 56.617188 20.425781 "/>
<path style="fill:none;stroke-width:0.796993;stroke-linecap:butt;stroke-linejoin:miter;stroke:rgb(99.609375%,99.609375%,99.609375%);stroke-opacity:1;stroke-miterlimit:10;" d="M 1357.890625 1976.5625 C 1388.945313 1976.5625 1434.375 1976.5625 1463.828125 1976.5625 C 1463.046875 1767.851563 1463.828125 1551.992188 1463.828125 1340.9375 C 1434.375 1340.117188 1388.164063 1340.9375 1357.890625 1341.71875 C 1357.890625 1551.210938 1357.890625 1768.671875 1357.890625 1976.5625 Z M 1357.890625 1976.5625 " transform="matrix(0.1,0,0,-0.1,0,218)"/>
<path style=" stroke:none;fill-rule:nonzero;fill:rgb(99.609375%,99.609375%,99.609375%);fill-opacity:1;" d="M 135.789063 20.34375 C 138.894531 20.34375 143.4375 20.34375 146.382813 20.34375 C 146.304688 41.214844 146.382813 62.800781 146.382813 83.90625 C 143.4375 83.988281 138.816406 83.90625 135.789063 83.828125 C 135.789063 62.878906 135.789063 41.132813 135.789063 20.34375 "/>
<path style="fill:none;stroke-width:0.796993;stroke-linecap:butt;stroke-linejoin:miter;stroke:rgb(99.609375%,99.609375%,99.609375%);stroke-opacity:1;stroke-miterlimit:10;" d="M 930.15625 1973.359375 C 954.84375 1955.039063 964.414063 1945.46875 981.953125 1931.132813 C 1030.546875 1890.507813 1075.15625 1852.304688 1126.914063 1810.078125 C 1170.703125 1849.882813 1219.296875 1892.109375 1264.726563 1933.515625 C 1280.625 1947.070313 1289.414063 1955.039063 1310.898438 1973.359375 C 1310.898438 1941.484375 1310.898438 1917.617188 1310.898438 1890.507813 C 1310.898438 1708.125 1310.898438 1523.320313 1310.898438 1341.71875 C 1268.671875 1341.71875 1231.25 1341.71875 1199.375 1341.71875 C 1199.375 1438.085938 1198.59375 1537.65625 1198.59375 1635.625 C 1197.8125 1659.53125 1197.8125 1681.835938 1197.8125 1711.289063 C 1168.320313 1684.21875 1150 1665.117188 1126.09375 1643.59375 C 1098.242188 1668.28125 1083.125 1683.4375 1051.25 1711.289063 C 1050.46875 1669.101563 1050.46875 1639.609375 1050.46875 1603.789063 C 1050.46875 1517.734375 1050.46875 1426.132813 1050.46875 1343.320313 C 1013.789063 1343.320313 975.585938 1343.320313 930.15625 1343.320313 C 930.15625 1476.328125 930.15625 1618.125 930.15625 1755.117188 C 930.15625 1828.398438 930.15625 1894.492188 930.15625 1973.359375 Z M 930.15625 1973.359375 " transform="matrix(0.1,0,0,-0.1,0,218)"/>
<path style=" stroke:none;fill-rule:nonzero;fill:rgb(99.609375%,99.609375%,99.609375%);fill-opacity:1;" d="M 93.015625 20.664063 C 95.484375 22.496094 96.441406 23.453125 98.195313 24.886719 C 103.054688 28.949219 107.515625 32.769531 112.691406 36.992188 C 117.070313 33.011719 121.929688 28.789063 126.472656 24.648438 C 128.0625 23.292969 128.941406 22.496094 131.089844 20.664063 C 131.089844 23.851563 131.089844 26.238281 131.089844 28.949219 C 131.089844 47.1875 131.089844 65.667969 131.089844 83.828125 C 126.867188 83.828125 123.125 83.828125 119.9375 83.828125 C 119.9375 74.191406 119.859375 64.234375 119.859375 54.4375 C 119.78125 52.046875 119.78125 49.816406 119.78125 46.871094 C 116.832031 49.578125 115 51.488281 112.609375 53.640625 C 109.824219 51.171875 108.3125 49.65625 105.125 46.871094 C 105.046875 51.089844 105.046875 54.039063 105.046875 57.621094 C 105.046875 66.226563 105.046875 75.386719 105.046875 83.667969 C 101.378906 83.667969 97.558594 83.667969 93.015625 83.667969 C 93.015625 70.367188 93.015625 56.1875 93.015625 42.488281 C 93.015625 35.160156 93.015625 28.550781 93.015625 20.664063 "/>
<path style="fill:none;stroke-width:0.796993;stroke-linecap:butt;stroke-linejoin:miter;stroke:rgb(99.609375%,99.609375%,99.609375%);stroke-opacity:1;stroke-miterlimit:10;" d="M 146.40625 1276.40625 C 448.28125 1276.40625 756.523438 1276.40625 1060.78125 1276.40625 C 1218.515625 1276.40625 1382.578125 1276.40625 1536.328125 1276.40625 C 1535.507813 1203.945313 1536.328125 1128.242188 1536.328125 1054.179688 C 1540.3125 945.859375 1519.609375 867.8125 1492.5 789.726563 C 1422.421875 594.609375 1286.992188 463.984375 1095.039063 390.703125 C 1047.265625 373.945313 1005.859375 361.210938 950.078125 353.242188 C 895.9375 344.492188 814.6875 341.289063 750.9375 349.257813 C 555.820313 373.945313 414.84375 462.382813 313.671875 585.820313 C 239.609375 676.640625 183.828125 784.179688 154.375 921.171875 C 148.789063 942.65625 146.40625 966.5625 146.40625 998.4375 C 146.40625 1090.820313 148.007813 1185.625 146.40625 1276.40625 Z M 146.40625 1276.40625 " transform="matrix(0.1,0,0,-0.1,0,218)"/>
<path style=" stroke:none;fill-rule:nonzero;fill:rgb(99.609375%,99.609375%,99.609375%);fill-opacity:1;" d="M 14.640625 90.359375 C 44.828125 90.359375 75.652344 90.359375 106.078125 90.359375 C 121.851563 90.359375 138.257813 90.359375 153.632813 90.359375 C 153.550781 97.605469 153.632813 105.175781 153.632813 112.582031 C 154.03125 123.414063 151.960938 131.21875 149.25 139.027344 C 142.242188 158.539063 128.699219 171.601563 109.503906 178.929688 C 104.726563 180.605469 100.585938 181.878906 95.007813 182.675781 C 89.59375 183.550781 81.46875 183.871094 75.09375 183.074219 C 55.582031 180.605469 41.484375 171.761719 31.367188 159.417969 C 23.960938 150.335938 18.382813 139.582031 15.4375 125.882813 C 14.878906 123.734375 14.640625 121.34375 14.640625 118.15625 C 14.640625 108.917969 14.800781 99.4375 14.640625 90.359375 "/>
<path style="fill:none;stroke-width:0.796993;stroke-linecap:butt;stroke-linejoin:miter;stroke:rgb(0%,0%,0%);stroke-opacity:1;stroke-miterlimit:10;" d="M 218.90625 1191.992188 C 255.507813 1191.171875 304.101563 1192.773438 343.125 1191.171875 C 375 1129.0625 398.085938 1070.117188 425.195313 1007.96875 C 431.5625 992.851563 436.328125 982.5 448.28125 960.976563 C 449.0625 992.851563 449.0625 1013.554688 449.0625 1038.242188 C 448.28125 1074.882813 448.28125 1114.726563 449.0625 1148.164063 C 492.890625 1148.164063 535.117188 1148.164063 585.273438 1148.164063 C 585.273438 971.367188 585.273438 787.34375 585.273438 608.125 C 585.273438 573.867188 586.09375 552.382813 585.273438 503.789063 C 558.203125 522.109375 547.03125 529.257813 531.132813 540.429688 C 504.84375 561.132813 472.96875 578.671875 448.28125 600.15625 C 440.3125 612.109375 434.726563 630.429688 429.179688 646.367188 C 402.070313 722.03125 375 795.3125 345.546875 874.179688 C 342.34375 816.015625 343.125 765.039063 342.34375 710.898438 C 304.921875 761.054688 264.296875 813.632813 226.054688 863.828125 C 214.882813 874.960938 219.6875 896.484375 218.90625 918.789063 C 218.90625 1011.171875 218.90625 1096.40625 218.90625 1191.992188 Z M 218.90625 1191.992188 " transform="matrix(0.1,0,0,-0.1,0,218)"/>
<path style=" stroke:none;fill-rule:nonzero;fill:rgb(0%,0%,0%);fill-opacity:1;" d="M 21.890625 98.800781 C 25.550781 98.882813 30.410156 98.722656 34.3125 98.882813 C 37.5 105.09375 39.808594 110.988281 42.519531 117.203125 C 43.15625 118.714844 43.632813 119.75 44.828125 121.902344 C 44.90625 118.714844 44.90625 116.644531 44.90625 114.175781 C 44.828125 110.511719 44.828125 106.527344 44.90625 103.183594 C 49.289063 103.183594 53.511719 103.183594 58.527344 103.183594 C 58.527344 120.863281 58.527344 139.265625 58.527344 157.1875 C 58.527344 160.613281 58.609375 162.761719 58.527344 167.621094 C 55.820313 165.789063 54.703125 165.074219 53.113281 163.957031 C 50.484375 161.886719 47.296875 160.132813 44.828125 157.984375 C 44.03125 156.789063 43.472656 154.957031 42.917969 153.363281 C 40.207031 145.796875 37.5 138.46875 34.554688 130.582031 C 34.234375 136.398438 34.3125 141.496094 34.234375 146.910156 C 30.492188 141.894531 26.429688 136.636719 22.605469 131.617188 C 21.488281 130.503906 21.96875 128.351563 21.890625 126.121094 C 21.890625 116.882813 21.890625 108.359375 21.890625 98.800781 "/>
<path style="fill:none;stroke-width:0.796993;stroke-linecap:butt;stroke-linejoin:miter;stroke:rgb(0%,0%,0%);stroke-opacity:1;stroke-miterlimit:10;" d="M 1338.789063 1188.007813 C 1380.195313 1188.789063 1416.835938 1188.007813 1462.226563 1188.789063 C 1462.226563 1147.382813 1463.046875 1104.375 1462.226563 1061.367188 C 1463.828125 1042.226563 1453.476563 1029.492188 1447.109375 1017.539063 C 1428.007813 981.679688 1406.484375 946.640625 1388.164063 909.21875 C 1396.914063 881.328125 1414.453125 851.054688 1428.007813 823.984375 C 1431.992188 812.851563 1447.890625 797.695313 1435.15625 786.5625 C 1399.335938 742.734375 1376.210938 711.679688 1340.390625 667.070313 C 1322.851563 691.757813 1316.484375 700.546875 1298.945313 723.632813 C 1278.242188 677.421875 1267.109375 645.585938 1246.40625 605.742188 C 1204.179688 567.5 1157.1875 536.445313 1111.796875 501.40625 C 1111.796875 553.164063 1111.796875 593.007813 1111.796875 640 C 1107.8125 678.242188 1126.09375 694.960938 1138.046875 722.8125 C 1159.570313 766.640625 1181.875 808.046875 1205.78125 856.640625 C 1217.695313 870.195313 1199.375 882.929688 1193.828125 892.5 C 1168.320313 925.9375 1141.25 955.429688 1117.34375 992.070313 C 1112.578125 1039.84375 1116.5625 1100.390625 1115.742188 1148.164063 C 1153.203125 1147.382813 1194.609375 1149.765625 1224.882813 1146.5625 C 1250.351563 1119.492188 1261.523438 1096.40625 1290.195313 1062.148438 C 1312.5 1118.710938 1320.46875 1147.382813 1338.789063 1188.007813 Z M 1338.789063 1188.007813 " transform="matrix(0.1,0,0,-0.1,0,218)"/>
<path style=" stroke:none;fill-rule:nonzero;fill:rgb(0%,0%,0%);fill-opacity:1;" d="M 133.878906 99.199219 C 138.019531 99.121094 141.683594 99.199219 146.222656 99.121094 C 146.222656 103.261719 146.304688 107.5625 146.222656 111.863281 C 146.382813 113.777344 145.347656 115.050781 144.710938 116.246094 C 142.800781 119.832031 140.648438 123.335938 138.816406 127.078125 C 139.691406 129.867188 141.445313 132.894531 142.800781 135.601563 C 143.199219 136.714844 144.789063 138.230469 143.515625 139.34375 C 139.933594 143.726563 137.621094 146.832031 134.039063 151.292969 C 132.285156 148.824219 131.648438 147.945313 129.894531 145.636719 C 127.824219 150.257813 126.710938 153.441406 124.640625 157.425781 C 120.417969 161.25 115.71875 164.355469 111.179688 167.859375 C 111.179688 162.683594 111.179688 158.699219 111.179688 154 C 110.78125 150.175781 112.609375 148.503906 113.804688 145.71875 C 115.957031 141.335938 118.1875 137.195313 120.578125 132.335938 C 121.769531 130.980469 119.9375 129.707031 119.382813 128.75 C 116.832031 125.40625 114.125 122.457031 111.734375 118.792969 C 111.257813 114.015625 111.65625 107.960938 111.574219 103.183594 C 115.320313 103.261719 119.460938 103.023438 122.488281 103.34375 C 125.035156 106.050781 126.152344 108.359375 129.019531 111.785156 C 131.25 106.128906 132.046875 103.261719 133.878906 99.199219 "/>
<path style="fill:none;stroke-width:0.796993;stroke-linecap:butt;stroke-linejoin:miter;stroke:rgb(0%,0%,0%);stroke-opacity:1;stroke-miterlimit:10;" d="M 793.164063 1144.179688 C 817.851563 1148.984375 856.09375 1153.75 885.585938 1148.164063 C 958.828125 1138.59375 1010.625 1105.15625 1036.09375 1045.429688 C 1046.445313 1025.507813 1043.28125 984.101563 1044.0625 950.625 C 1043.28125 828.789063 1044.0625 706.09375 1043.28125 584.21875 C 1036.914063 507.773438 980.351563 469.53125 918.242188 449.609375 C 883.164063 438.476563 807.5 438.476563 774.0625 449.609375 C 721.484375 466.367188 679.257813 499.023438 659.375 549.179688 C 654.570313 562.734375 651.40625 581.054688 651.40625 600.15625 C 652.1875 733.984375 651.40625 864.609375 652.1875 999.21875 C 654.570313 1038.242188 667.304688 1059.765625 683.242188 1081.25 C 708.75 1113.125 748.554688 1135.429688 793.164063 1144.179688 Z M 793.164063 1144.179688 " transform="matrix(0.1,0,0,-0.1,0,218)"/>
<path style=" stroke:none;fill-rule:nonzero;fill:rgb(0%,0%,0%);fill-opacity:1;" d="M 79.316406 103.582031 C 81.785156 103.101563 85.609375 102.625 88.558594 103.183594 C 95.882813 104.140625 101.0625 107.484375 103.609375 113.457031 C 104.644531 115.449219 104.328125 119.589844 104.40625 122.9375 C 104.328125 135.121094 104.40625 147.390625 104.328125 159.578125 C 103.691406 167.222656 98.035156 171.046875 91.824219 173.039063 C 88.316406 174.152344 80.75 174.152344 77.40625 173.039063 C 72.148438 171.363281 67.925781 168.097656 65.9375 163.082031 C 65.457031 161.726563 65.140625 159.894531 65.140625 157.984375 C 65.21875 144.601563 65.140625 131.539063 65.21875 118.078125 C 65.457031 114.175781 66.730469 112.023438 68.324219 109.875 C 70.875 106.6875 74.855469 104.457031 79.316406 103.582031 "/>
<path style="fill:none;stroke-width:0.796993;stroke-linecap:butt;stroke-linejoin:miter;stroke:rgb(99.609375%,99.609375%,99.609375%);stroke-opacity:1;stroke-miterlimit:10;" d="M 809.101563 1018.359375 C 826.640625 1024.726563 856.09375 1027.109375 875.234375 1021.523438 C 905.46875 1013.554688 926.992188 997.617188 927.773438 959.414063 C 927.773438 848.671875 927.773438 741.953125 926.992188 632.03125 C 920.625 593.007813 893.515625 577.851563 859.296875 572.304688 C 801.953125 566.71875 762.890625 593.007813 767.695313 655.117188 C 767.695313 744.335938 767.695313 830.351563 767.695313 918.789063 C 767.695313 940.273438 766.875 963.398438 769.257813 979.296875 C 775.664063 1000.039063 790.78125 1010.390625 809.101563 1018.359375 Z M 809.101563 1018.359375 " transform="matrix(0.1,0,0,-0.1,0,218)"/>
<path style=" stroke:none;fill-rule:nonzero;fill:rgb(99.609375%,99.609375%,99.609375%);fill-opacity:1;" d="M 80.910156 116.164063 C 82.664063 115.527344 85.609375 115.289063 87.523438 115.847656 C 90.546875 116.644531 92.699219 118.238281 92.777344 122.058594 C 92.777344 133.132813 92.777344 143.804688 92.699219 154.796875 C 92.0625 158.699219 89.351563 160.214844 85.929688 160.769531 C 80.195313 161.328125 76.289063 158.699219 76.769531 152.488281 C 76.769531 143.566406 76.769531 134.964844 76.769531 126.121094 C 76.769531 123.972656 76.6875 121.660156 76.925781 120.070313 C 77.566406 117.996094 79.078125 116.960938 80.910156 116.164063 "/>
<path style=" stroke:none;fill-rule:nonzero;fill:rgb(0%,0%,0%);fill-opacity:1;" d="M 204.5625 59.492188 L 204.5625 136.453125 L 246.488281 136.453125 L 246.488281 159.363281 L 177.761719 159.363281 L 177.761719 59.492188 L 204.5625 59.492188 "/>
<path style=" stroke:none;fill-rule:nonzero;fill:rgb(0%,0%,0%);fill-opacity:1;" d="M 321.652344 89.4375 L 321.652344 159.363281 L 299.191406 159.363281 L 299.941406 146.035156 L 298.894531 146.035156 C 297.296875 151.125 294.726563 154.746094 291.183594 156.890625 C 287.640625 159.035156 283.273438 160.109375 278.082031 160.109375 C 270.394531 160.109375 264.582031 158.1875 260.636719 154.34375 C 256.695313 150.503906 254.722656 144.6875 254.722656 136.902344 L 254.722656 89.4375 L 277.484375 89.4375 L 277.484375 129.414063 C 277.484375 132.910156 278.03125 135.953125 279.128906 138.550781 C 280.226563 141.144531 282.773438 142.441406 286.765625 142.441406 C 290.757813 142.441406 293.777344 141.292969 295.824219 139 C 297.871094 136.703125 298.894531 133.65625 298.894531 129.863281 L 298.894531 89.4375 L 321.652344 89.4375 "/>
<path style=" stroke:none;fill-rule:nonzero;fill:rgb(0%,0%,0%);fill-opacity:1;" d="M 336.925781 89.4375 L 359.085938 89.4375 L 359.085938 99.320313 L 359.683594 99.320313 C 361.082031 95.726563 363.453125 93.15625 366.796875 91.609375 C 370.140625 90.0625 373.710938 89.1875 377.503906 88.988281 C 377.800781 88.988281 378.101563 88.988281 378.398438 88.988281 C 378.699219 88.988281 379 88.988281 379.300781 88.988281 C 384.390625 88.988281 388.980469 89.6875 393.074219 91.085938 C 397.167969 92.480469 399.3125 96.273438 399.511719 102.464844 L 400.5625 102.3125 C 401.359375 97.125 403.753906 93.605469 407.746094 91.757813 C 411.738281 89.910156 416.082031 88.988281 420.773438 88.988281 C 429.160156 88.988281 435.171875 90.933594 438.816406 94.828125 C 442.460938 98.722656 444.28125 104.710938 444.28125 112.796875 L 444.28125 159.363281 L 421.523438 159.363281 L 421.523438 120.132813 C 421.523438 116.4375 421.148438 113.320313 420.398438 110.773438 C 419.652344 108.230469 416.929688 106.957031 412.238281 106.957031 C 408.546875 106.957031 405.875 107.980469 404.230469 110.027344 C 402.582031 112.070313 401.757813 114.84375 401.757813 118.335938 L 401.757813 159.363281 L 379 159.363281 L 379 118.1875 C 379 114.890625 378.648438 112.195313 377.949219 110.101563 C 377.253906 108.003906 374.855469 106.957031 370.765625 106.957031 C 366.972656 106.957031 364.175781 107.753906 362.378906 109.351563 C 360.582031 110.949219 359.683594 113.941406 359.683594 118.335938 L 359.683594 159.363281 L 336.925781 159.363281 L 336.925781 89.4375 "/>
<path style=" stroke:none;fill-rule:nonzero;fill:rgb(0%,0%,0%);fill-opacity:1;" d="M 481.5625 89.4375 L 481.5625 159.363281 L 458.804688 159.363281 L 458.804688 89.4375 Z M 481.5625 59.492188 L 481.5625 76.5625 L 458.804688 76.5625 L 458.804688 59.492188 L 481.5625 59.492188 "/>
<path style=" stroke:none;fill-rule:nonzero;fill:rgb(0%,0%,0%);fill-opacity:1;" d="M 496.835938 89.4375 L 518.695313 89.4375 L 518.695313 102.164063 L 519.597656 102.164063 C 521.292969 97.472656 523.761719 94.105469 527.007813 92.058594 C 530.253906 90.011719 534.320313 88.988281 539.210938 88.988281 C 546.496094 88.988281 552.386719 90.535156 556.878906 93.628906 C 561.371094 96.726563 563.617188 102.265625 563.617188 110.25 L 563.617188 159.363281 L 540.855469 159.363281 L 540.855469 118.335938 C 540.855469 115.441406 540.382813 112.769531 539.433594 110.324219 C 538.488281 107.878906 536.214844 106.65625 532.621094 106.65625 C 528.828125 106.65625 525.710938 107.578125 523.265625 109.425781 C 520.816406 111.273438 519.597656 114.292969 519.597656 118.484375 L 519.597656 159.363281 L 496.835938 159.363281 L 496.835938 89.4375 "/>
<path style=" stroke:none;fill-rule:nonzero;fill:rgb(0%,0%,0%);fill-opacity:1;" d="M 576.34375 120.730469 C 576.34375 108.253906 578.714844 99.84375 583.453125 95.503906 C 588.195313 91.160156 596.757813 88.988281 609.132813 88.988281 C 621.910156 88.988281 631.269531 90.734375 637.210938 94.230469 C 643.148438 97.722656 646.117188 106.605469 646.117188 120.882813 C 646.117188 134.257813 644.59375 144.140625 641.550781 150.527344 C 638.507813 156.914063 629.046875 160.109375 613.175781 160.109375 C 600.800781 160.109375 591.566406 158.3125 585.476563 154.71875 C 579.386719 151.125 576.34375 142.390625 576.34375 128.515625 Z M 599.253906 124.324219 L 599.253906 127.769531 C 599.253906 132.558594 599.925781 136.351563 601.273438 139.148438 C 602.621094 141.941406 606.039063 143.339844 611.53125 143.339844 C 616.222656 143.339844 619.316406 142.191406 620.8125 139.898438 C 622.308594 137.601563 623.109375 134.257813 623.210938 129.863281 C 623.210938 129.066406 623.210938 128.242188 623.210938 127.394531 C 623.210938 126.546875 623.257813 125.722656 623.359375 124.921875 C 623.359375 124.125 623.359375 123.300781 623.359375 122.453125 C 623.359375 121.605469 623.359375 120.78125 623.359375 119.984375 C 623.359375 115.089844 622.660156 111.523438 621.261719 109.277344 C 619.863281 107.03125 616.570313 105.90625 611.378906 105.90625 C 605.691406 105.90625 602.246094 107.355469 601.050781 110.25 C 599.851563 113.144531 599.253906 117.1875 599.253906 122.378906 L 599.253906 124.324219 "/>
<path style=" stroke:none;fill-rule:nonzero;fill:rgb(0%,0%,0%);fill-opacity:1;" d="M 719.335938 89.4375 L 700.917969 122.378906 L 721.132813 159.363281 L 694.328125 159.363281 L 684.296875 136.304688 L 674.566406 159.363281 L 647.015625 159.363281 L 667.828125 122.378906 L 649.710938 89.4375 L 676.363281 89.4375 L 684.296875 108.753906 L 692.683594 89.4375 L 719.335938 89.4375 "/>
<path style=" stroke:none;fill-rule:nonzero;fill:rgb(13.699341%,12.199402%,12.5%);fill-opacity:1;" d="M 13.539063 210.648438 L 15.117188 210.648438 C 15.148438 211.445313 15.445313 212.078125 16 212.550781 C 16.558594 213.019531 17.292969 213.257813 18.199219 213.257813 C 19.179688 213.257813 19.953125 213.019531 20.523438 212.554688 C 21.097656 212.085938 21.386719 211.449219 21.386719 210.648438 C 21.386719 209.480469 20.210938 208.601563 17.859375 208.007813 C 17.675781 207.957031 17.535156 207.925781 17.441406 207.902344 C 16.21875 207.574219 15.339844 207.164063 14.796875 206.667969 C 14.257813 206.167969 13.988281 205.519531 13.988281 204.71875 C 13.988281 203.691406 14.402344 202.851563 15.234375 202.199219 C 16.070313 201.542969 17.140625 201.214844 18.460938 201.214844 C 19.714844 201.214844 20.714844 201.515625 21.453125 202.109375 C 22.1875 202.703125 22.597656 203.542969 22.679688 204.621094 L 21.125 204.621094 C 21.042969 203.921875 20.769531 203.378906 20.308594 203 C 19.847656 202.621094 19.230469 202.429688 18.457031 202.429688 C 17.628906 202.429688 16.953125 202.636719 16.425781 203.050781 C 15.898438 203.46875 15.636719 203.996094 15.636719 204.640625 C 15.636719 204.972656 15.714844 205.261719 15.871094 205.511719 C 16.027344 205.753906 16.28125 205.976563 16.625 206.175781 C 16.980469 206.375 17.65625 206.601563 18.652344 206.847656 C 19.226563 206.988281 19.664063 207.105469 19.964844 207.191406 C 21.050781 207.515625 21.835938 207.929688 22.316406 208.433594 C 22.792969 208.9375 23.035156 209.597656 23.035156 210.417969 C 23.035156 211.667969 22.589844 212.671875 21.703125 213.433594 C 20.820313 214.199219 19.640625 214.578125 18.175781 214.578125 C 16.808594 214.578125 15.703125 214.21875 14.851563 213.5 C 14 212.777344 13.5625 211.824219 13.539063 210.648438 "/>
<path style=" stroke:none;fill-rule:nonzero;fill:rgb(13.699341%,12.199402%,12.5%);fill-opacity:1;" d="M 34.175781 201.453125 L 37.546875 212.007813 L 41.730469 201.453125 L 43.339844 201.453125 L 38.15625 214.324219 L 36.789063 214.324219 L 33.429688 203.820313 L 30.050781 214.324219 L 28.683594 214.324219 L 23.476563 201.453125 L 25.105469 201.453125 L 29.269531 212.007813 L 32.667969 201.453125 L 34.175781 201.453125 "/>
<path style=" stroke:none;fill-rule:nonzero;fill:rgb(13.699341%,12.199402%,12.5%);fill-opacity:1;" d="M 46.167969 214.324219 L 44.519531 214.324219 L 44.519531 201.453125 L 46.167969 201.453125 L 46.167969 214.324219 "/>
<path style=" stroke:none;fill-rule:nonzero;fill:rgb(13.699341%,12.199402%,12.5%);fill-opacity:1;" d="M 48.386719 210.648438 L 49.964844 210.648438 C 49.996094 211.445313 50.289063 212.078125 50.847656 212.550781 C 51.40625 213.019531 52.140625 213.257813 53.046875 213.257813 C 54.023438 213.257813 54.796875 213.019531 55.371094 212.554688 C 55.945313 212.085938 56.230469 211.449219 56.230469 210.648438 C 56.230469 209.480469 55.058594 208.601563 52.703125 208.007813 C 52.519531 207.957031 52.382813 207.925781 52.289063 207.902344 C 51.0625 207.574219 50.183594 207.164063 49.640625 206.667969 C 49.105469 206.167969 48.832031 205.519531 48.832031 204.71875 C 48.832031 203.691406 49.25 202.851563 50.082031 202.199219 C 50.914063 201.542969 51.984375 201.214844 53.304688 201.214844 C 54.5625 201.214844 55.558594 201.515625 56.296875 202.109375 C 57.03125 202.703125 57.445313 203.542969 57.527344 204.621094 L 55.972656 204.621094 C 55.890625 203.921875 55.613281 203.378906 55.15625 203 C 54.695313 202.621094 54.074219 202.429688 53.300781 202.429688 C 52.472656 202.429688 51.796875 202.636719 51.273438 203.050781 C 50.746094 203.46875 50.480469 203.996094 50.480469 204.640625 C 50.480469 204.972656 50.558594 205.261719 50.71875 205.511719 C 50.875 205.753906 51.125 205.976563 51.472656 206.175781 C 51.824219 206.375 52.5 206.601563 53.496094 206.847656 C 54.070313 206.988281 54.511719 207.105469 54.808594 207.191406 C 55.898438 207.515625 56.683594 207.929688 57.160156 208.433594 C 57.640625 208.9375 57.878906 209.597656 57.878906 210.417969 C 57.878906 211.667969 57.4375 212.671875 56.550781 213.433594 C 55.664063 214.199219 54.488281 214.578125 53.023438 214.578125 C 51.65625 214.578125 50.550781 214.21875 49.695313 213.5 C 48.84375 212.777344 48.410156 211.824219 48.386719 210.648438 "/>
<path style=" stroke:none;fill-rule:nonzero;fill:rgb(13.699341%,12.199402%,12.5%);fill-opacity:1;" d="M 59.335938 210.648438 L 60.914063 210.648438 C 60.945313 211.445313 61.242188 212.078125 61.796875 212.550781 C 62.355469 213.019531 63.089844 213.257813 63.996094 213.257813 C 64.976563 213.257813 65.75 213.019531 66.324219 212.554688 C 66.894531 212.085938 67.183594 211.449219 67.183594 210.648438 C 67.183594 209.480469 66.007813 208.601563 63.65625 208.007813 C 63.472656 207.957031 63.335938 207.925781 63.238281 207.902344 C 62.015625 207.574219 61.136719 207.164063 60.59375 206.667969 C 60.054688 206.167969 59.785156 205.519531 59.785156 204.71875 C 59.785156 203.691406 60.199219 202.851563 61.03125 202.199219 C 61.867188 201.542969 62.9375 201.214844 64.257813 201.214844 C 65.515625 201.214844 66.511719 201.515625 67.25 202.109375 C 67.984375 202.703125 68.394531 203.542969 68.476563 204.621094 L 66.921875 204.621094 C 66.839844 203.921875 66.566406 203.378906 66.105469 203 C 65.648438 202.621094 65.027344 202.429688 64.253906 202.429688 C 63.425781 202.429688 62.75 202.636719 62.222656 203.050781 C 61.695313 203.46875 61.433594 203.996094 61.433594 204.640625 C 61.433594 204.972656 61.511719 205.261719 61.667969 205.511719 C 61.828125 205.753906 62.078125 205.976563 62.421875 206.175781 C 62.777344 206.375 63.453125 206.601563 64.449219 206.847656 C 65.023438 206.988281 65.464844 207.105469 65.761719 207.191406 C 66.847656 207.515625 67.632813 207.929688 68.113281 208.433594 C 68.59375 208.9375 68.832031 209.597656 68.832031 210.417969 C 68.832031 211.667969 68.386719 212.671875 67.5 213.433594 C 66.617188 214.199219 65.4375 214.578125 63.972656 214.578125 C 62.609375 214.578125 61.5 214.21875 60.648438 213.5 C 59.796875 212.777344 59.359375 211.824219 59.335938 210.648438 "/>
<path style=" stroke:none;fill-rule:nonzero;fill:rgb(13.699341%,12.199402%,12.5%);fill-opacity:1;" d="M 115.929688 214.332031 L 114.191406 214.332031 L 120.691406 201.460938 L 122.671875 201.460938 L 129.152344 214.332031 L 127.390625 214.332031 L 125.390625 210.296875 L 117.933594 210.296875 Z M 124.8125 209.136719 L 121.636719 202.675781 L 118.503906 209.136719 Z M 124.8125 209.136719 "/>
<path style=" stroke:none;fill-rule:nonzero;fill:rgb(13.699341%,12.199402%,12.5%);fill-opacity:1;" d="M 132.03125 202.691406 L 132.03125 213.121094 L 135.445313 213.121094 C 137.574219 213.121094 139.214844 212.664063 140.367188 211.742188 C 141.515625 210.824219 142.089844 209.519531 142.089844 207.835938 C 142.089844 206.992188 141.894531 206.21875 141.503906 205.503906 C 141.113281 204.789063 140.554688 204.191406 139.824219 203.710938 C 139.28125 203.34375 138.671875 203.082031 137.996094 202.925781 C 137.324219 202.769531 136.339844 202.691406 135.054688 202.691406 Z M 130.402344 201.460938 L 135.167969 201.460938 C 136.480469 201.460938 137.582031 201.5625 138.472656 201.761719 C 139.363281 201.960938 140.152344 202.28125 140.832031 202.726563 C 141.789063 203.34375 142.53125 204.101563 143.0625 204.996094 C 143.59375 205.894531 143.855469 206.851563 143.855469 207.871094 C 143.855469 209.007813 143.566406 210.042969 142.984375 210.980469 C 142.398438 211.914063 141.574219 212.675781 140.511719 213.261719 C 139.808594 213.644531 139.046875 213.921875 138.226563 214.085938 C 137.40625 214.253906 136.140625 214.332031 134.433594 214.332031 L 130.402344 214.332031 L 130.402344 201.460938 "/>
<path style=" stroke:none;fill-rule:nonzero;fill:rgb(13.699341%,12.199402%,12.5%);fill-opacity:1;" d="M 147.769531 207.238281 L 154.8125 207.238281 L 154.8125 208.503906 L 147.769531 208.503906 L 147.769531 213.085938 L 154.8125 213.085938 L 154.8125 214.332031 L 146.117188 214.332031 L 146.117188 201.460938 L 154.8125 201.460938 L 154.8125 202.730469 L 147.769531 202.730469 L 147.769531 207.238281 "/>
<path style=" stroke:none;fill-rule:nonzero;fill:rgb(13.699341%,12.199402%,12.5%);fill-opacity:1;" d="M 104.222656 214.332031 L 101.496094 203.777344 L 98.667969 214.332031 L 97.367188 214.332031 L 101.003906 201.460938 L 102.105469 201.460938 L 104.824219 211.964844 L 107.554688 201.460938 L 108.65625 201.460938 L 112.207031 214.332031 L 110.890625 214.332031 L 108.183594 203.777344 L 105.4375 214.332031 L 104.222656 214.332031 "/>
<path style=" stroke:none;fill-rule:evenodd;fill:rgb(92.89856%,10.998535%,14.099121%);fill-opacity:1;" d="M 83.597656 197.957031 C 89.089844 197.957031 93.539063 202.40625 93.539063 207.898438 C 93.539063 213.386719 89.089844 217.835938 83.597656 217.835938 C 78.109375 217.835938 73.660156 213.386719 73.660156 207.898438 C 73.660156 202.40625 78.109375 197.957031 83.597656 197.957031 "/>
<path style=" stroke:none;fill-rule:evenodd;fill:rgb(100%,100%,100%);fill-opacity:1;" d="M 81.542969 200.867188 L 85.65625 200.867188 L 85.65625 214.925781 L 81.542969 214.925781 L 81.542969 200.867188 "/>
<path style=" stroke:none;fill-rule:evenodd;fill:rgb(100%,100%,100%);fill-opacity:1;" d="M 76.570313 209.953125 L 76.570313 205.839844 L 90.628906 205.839844 L 90.628906 209.953125 L 76.570313 209.953125 "/>
</g>
</svg>
