<svg version="1.1" id="Layer_1" xmlns="http://www.w3.org/2000/svg" xmlns:xlink="http://www.w3.org/1999/xlink" x="0px" y="0px"
	 width="100%" viewBox="0 0 3275 805" enable-background="new 0 0 3275 805" xml:space="preserve">
<path fill="#FFFFFF" opacity="1.000000" stroke="none" 
	d="
M2421.000000,806.000000 
	C1614.000000,806.000000 807.500000,806.000000 1.000000,806.000000 
	C1.000000,537.666687 1.000000,269.333344 1.000000,1.000000 
	C1092.666626,1.000000 2184.333252,1.000000 3276.000000,1.000000 
	C3276.000000,269.333344 3276.000000,537.666687 3276.000000,806.000000 
	C2991.166748,806.000000 2706.333252,806.000000 2421.000000,806.000000 
M783.734924,127.880981 
	C778.275757,101.821594 766.208435,81.059723 738.982178,72.197456 
	C740.012756,65.104904 736.200256,60.760853 730.342590,57.501286 
	C722.275085,53.012089 713.550964,51.143051 704.459717,51.063808 
	C658.582581,50.663933 617.226990,63.116402 581.867310,93.487335 
	C561.403931,111.063667 540.498657,128.143814 519.401611,144.956955 
	C507.931824,154.097687 495.197510,161.376846 481.181976,166.178864 
	C459.953674,173.452103 440.884644,169.938614 424.013123,155.017365 
	C422.825104,153.966675 421.591064,152.967987 420.284302,151.865692 
	C416.147858,162.857758 416.332977,176.414108 421.035431,184.724442 
	C428.971436,198.749176 442.986481,200.464615 457.129303,202.148911 
	C411.952667,222.072723 365.525238,226.757599 317.294037,214.332275 
	C317.294037,220.780823 316.454041,227.178940 317.430817,233.286514 
	C323.614197,271.950531 362.996918,302.378052 402.046875,298.200500 
	C416.542175,296.649811 431.014923,293.817383 445.152283,290.213440 
	C475.410065,282.500031 504.803650,271.507233 535.788940,266.496338 
	C551.732178,263.917999 567.595642,260.530060 583.881409,262.009766 
	C592.812866,262.821259 600.351624,266.033630 603.272827,274.660156 
	C594.063904,275.618774 584.725586,275.939484 575.648926,277.649231 
	C537.632996,284.810150 500.779205,296.249756 464.994446,310.705536 
	C402.709961,335.866272 338.669006,352.971436 271.408600,357.497375 
	C216.887466,361.166138 165.077469,351.283997 115.643616,328.355408 
	C94.835106,318.703918 75.772255,306.296417 58.563164,291.105011 
	C56.565941,289.341980 54.295521,288.144775 52.639141,290.510712 
	C51.635647,291.944092 52.194733,294.571808 52.329845,296.644836 
	C52.374313,297.327087 53.308083,297.939606 53.806129,298.605743 
	C70.975380,321.570129 92.939240,338.308990 119.405914,349.238861 
	C121.504974,350.105713 123.427429,351.400238 125.431969,352.496002 
	C125.199409,353.164520 124.966850,353.833038 124.734283,354.501556 
	C117.439095,353.524506 110.162277,352.364044 102.842636,351.631104 
	C97.421967,351.088348 91.936478,350.804749 86.497322,350.972412 
	C82.921295,351.082642 80.259789,353.850128 80.691986,357.213654 
	C80.963486,359.326630 83.685936,361.359467 85.699951,362.925079 
	C86.895950,363.854797 88.831917,363.944946 90.468582,364.178192 
	C107.920631,366.665039 124.345573,372.027039 139.991226,380.303192 
	C146.198761,383.586792 153.313950,385.945007 160.262024,386.864349 
	C172.590210,388.495544 185.118668,388.551727 197.541168,389.544434 
	C222.610260,391.547760 247.628433,394.708221 272.732635,395.640503 
	C319.841034,397.389893 366.993713,398.548737 414.131714,398.687195 
	C445.417419,398.779114 476.745728,397.099274 507.605621,390.938446 
	C519.044373,388.654785 525.608887,391.820312 529.284485,402.840485 
	C531.065186,408.179474 531.747314,414.299713 531.226562,419.908386 
	C529.996033,433.160889 522.920227,443.971680 514.547180,453.869659 
	C497.745575,473.731171 476.375122,487.247437 452.998199,498.049408 
	C429.773590,508.781036 406.523407,519.487976 383.641968,530.921265 
	C367.351349,539.061218 352.359161,549.335815 340.216187,563.232422 
	C319.261047,587.213745 317.148468,614.474792 334.295624,641.284241 
	C344.678345,657.517578 358.615631,670.390747 373.842133,681.895752 
	C409.422424,708.779968 449.165588,728.059875 490.158997,744.982361 
	C499.525574,748.848999 509.054169,752.323242 518.706177,756.054626 
	C518.815552,754.921631 518.924805,754.580933 518.867554,754.270935 
	C513.043762,722.735168 516.234314,691.968933 526.710327,661.814575 
	C539.437439,625.180725 560.972046,594.000427 586.394531,565.204529 
	C606.196533,542.774841 628.906555,523.416443 651.038574,503.420258 
	C677.461731,479.546967 700.067444,452.613953 714.460999,419.615204 
	C724.303162,397.050842 729.186462,373.667389 723.926208,349.070648 
	C721.742249,338.858154 717.846436,328.901978 716.666260,318.607178 
	C714.142151,296.588165 717.957581,275.885101 737.133789,261.866241 
	C745.285156,255.907135 754.938965,251.265930 764.609070,248.321716 
	C774.990662,245.160843 786.196045,244.714127 797.035767,243.042908 
	C799.495728,242.663651 802.004578,242.354721 804.364136,241.611176 
	C816.910278,237.657562 820.453918,223.653397 811.364197,214.145325 
	C809.159729,211.839371 806.560913,209.937057 809.583496,206.216232 
	C814.564453,200.084671 814.388062,199.074661 809.180176,193.353836 
	C815.120728,187.889511 814.887390,184.547089 808.114197,180.814514 
	C804.452759,178.796753 804.454651,177.381882 807.465454,174.222260 
	C810.665466,170.864151 812.969482,166.470245 814.952759,162.198105 
	C816.293701,159.309723 815.060120,156.872360 811.954956,154.791199 
	C803.809814,149.332169 796.102539,143.223984 788.131226,137.499237 
	C785.040588,135.279633 783.370300,132.577194 783.734924,127.880981 
M1694.883179,549.500000 
	C1694.883179,611.264099 1694.883179,673.028259 1694.883179,734.778931 
	C1732.600830,734.778931 1769.813232,734.778931 1807.168091,734.778931 
	C1807.168091,733.617493 1807.168091,732.794128 1807.168091,731.970703 
	C1807.168091,654.148926 1807.872559,576.318604 1806.930298,498.508209 
	C1806.258057,443.001862 1781.016357,399.827026 1733.621460,371.253906 
	C1684.886963,341.873169 1633.438477,344.028168 1581.898438,363.802185 
	C1571.051880,367.963684 1561.182129,374.671539 1550.536133,380.380920 
	C1550.536133,316.533813 1550.536133,252.356247 1550.536133,188.283981 
	C1512.706299,188.283981 1475.465088,188.283981 1438.280396,188.283981 
	C1438.280396,370.668701 1438.280396,552.734619 1438.280396,734.837769 
	C1475.764038,734.837769 1512.996094,734.837769 1550.616943,734.837769 
	C1550.616943,732.760864 1550.616943,730.958740 1550.616943,729.156616 
	C1550.616821,662.333191 1550.586426,595.509705 1550.671509,528.686401 
	C1550.678711,523.051086 1550.989014,517.334229 1551.959595,511.795624 
	C1557.760620,478.692108 1587.258057,453.541229 1620.592651,453.006989 
	C1655.779175,452.443024 1686.542725,475.960724 1692.789307,509.703766 
	C1695.127075,522.332275 1694.278809,535.550598 1694.883179,549.500000 
M2074.499023,349.708862 
	C2062.906006,350.746582 2051.168213,350.955322 2039.742432,352.951294 
	C1934.984985,371.251373 1862.640747,471.508270 1879.385376,576.350098 
	C1890.459839,645.689758 1928.238403,696.842896 1991.873291,726.363098 
	C2053.884277,755.130005 2114.796875,752.730286 2171.625732,711.190735 
	C2175.321777,708.489014 2178.909424,705.639221 2183.318359,702.269165 
	C2183.318359,713.714050 2183.318359,724.256287 2183.318359,734.789185 
	C2219.419189,734.789185 2254.982910,734.789185 2290.523926,734.789185 
	C2290.523926,609.574524 2290.523926,484.688171 2290.523926,359.772400 
	C2254.653564,359.772400 2219.099609,359.772400 2183.072266,359.772400 
	C2183.072266,369.690674 2183.072266,379.222809 2183.072266,389.427185 
	C2151.007568,364.449890 2115.868164,349.905853 2074.499023,349.708862 
M3226.000244,653.500000 
	C3226.000244,555.573120 3226.000244,457.646240 3226.000244,359.640198 
	C3189.977783,359.640198 3154.547607,359.640198 3118.484375,359.640198 
	C3118.484375,369.532440 3118.484375,379.185974 3118.484375,389.501831 
	C3116.291016,387.863068 3114.835205,386.781921 3113.386475,385.692139 
	C3071.063721,353.857239 3023.788086,343.030609 2971.966309,353.316772 
	C2865.106689,374.527588 2796.244873,476.449005 2815.866699,583.826477 
	C2832.279785,673.643921 2910.565186,741.366943 3001.756836,744.886292 
	C3041.764404,746.430176 3076.913574,733.575378 3108.606445,709.937866 
	C3111.740479,707.600403 3114.812744,705.180420 3118.690918,702.201904 
	C3118.690918,713.695557 3118.690918,724.232239 3118.690918,734.784668 
	C3154.741699,734.784668 3190.283447,734.784668 3226.000244,734.784668 
	C3226.000244,707.802002 3226.000244,681.151001 3226.000244,653.500000 
M936.932922,295.324402 
	C938.536194,295.894257 940.138550,296.959229 941.742798,296.962036 
	C991.738647,297.049805 1041.734619,297.033905 1091.730591,297.033905 
	C1093.496338,297.033905 1095.262085,297.033905 1097.424072,297.033905 
	C1097.424072,443.420441 1097.424072,589.164795 1097.424072,734.706909 
	C1137.779175,734.706909 1177.729736,734.706909 1218.287231,734.706909 
	C1218.287231,588.643494 1218.287231,442.948151 1218.287231,296.767548 
	C1272.122192,296.767548 1325.349487,296.767548 1378.571533,296.767548 
	C1378.571533,260.341156 1378.571533,224.402252 1378.571533,188.215118 
	C1231.322510,188.215118 1084.279541,188.215118 936.928223,188.215118 
	C936.928223,223.759125 936.928223,259.055542 936.932922,295.324402 
M2515.838867,354.500061 
	C2515.838867,299.079468 2515.838867,243.658859 2515.838867,188.239044 
	C2478.001221,188.239044 2440.758545,188.239044 2403.378418,188.239044 
	C2403.378418,370.554077 2403.378418,552.594604 2403.378418,734.736816 
	C2440.943359,734.736816 2478.289551,734.736816 2515.838867,734.736816 
	C2515.838867,608.069702 2515.838867,481.784912 2515.838867,354.500061 
M2740.839600,541.500061 
	C2740.839600,480.933380 2740.839600,420.366730 2740.839600,359.693329 
	C2702.975342,359.693329 2665.744629,359.693329 2628.376953,359.693329 
	C2628.376953,484.882782 2628.376953,609.758545 2628.376953,734.743530 
	C2665.937500,734.743530 2703.280029,734.743530 2740.555908,734.743530 
	C2740.693359,734.054504 2740.811279,733.738892 2740.811279,733.423279 
	C2740.826172,669.782227 2740.832764,606.141174 2740.839600,541.500061 
M2629.653320,271.795532 
	C2644.383789,296.665009 2670.734619,308.208618 2698.607178,302.002594 
	C2731.817627,294.608002 2753.727295,260.655884 2746.457520,227.852158 
	C2738.748779,193.067978 2704.979004,171.292053 2670.875488,178.708420 
	C2631.939209,187.175720 2607.986816,231.854050 2629.653320,271.795532 
z"/>
<path fill="#015B2F" opacity="1.000000" stroke="none" 
	d="
M783.788818,128.300690 
	C783.370300,132.577194 785.040588,135.279633 788.131226,137.499237 
	C796.102539,143.223984 803.809814,149.332169 811.954956,154.791199 
	C815.060120,156.872360 816.293701,159.309723 814.952759,162.198105 
	C812.969482,166.470245 810.665466,170.864151 807.465454,174.222260 
	C804.454651,177.381882 804.452759,178.796753 808.114197,180.814514 
	C814.887390,184.547089 815.120728,187.889511 809.180176,193.353836 
	C814.388062,199.074661 814.564453,200.084671 809.583496,206.216232 
	C806.560913,209.937057 809.159729,211.839371 811.364197,214.145325 
	C820.453918,223.653397 816.910278,237.657562 804.364136,241.611176 
	C802.004578,242.354721 799.495728,242.663651 797.035767,243.042908 
	C786.196045,244.714127 774.990662,245.160843 764.609070,248.321716 
	C754.938965,251.265930 745.285156,255.907135 737.133789,261.866241 
	C717.957581,275.885101 714.142151,296.588165 716.666260,318.607178 
	C717.846436,328.901978 721.742249,338.858154 723.926208,349.070648 
	C729.186462,373.667389 724.303162,397.050842 714.460999,419.615204 
	C700.067444,452.613953 677.461731,479.546967 651.038574,503.420258 
	C628.906555,523.416443 606.196533,542.774841 586.394531,565.204529 
	C560.972046,594.000427 539.437439,625.180725 526.710327,661.814575 
	C516.234314,691.968933 513.043762,722.735168 518.867554,754.270935 
	C518.924805,754.580933 518.815552,754.921631 518.706177,756.054626 
	C509.054169,752.323242 499.525574,748.848999 490.158997,744.982361 
	C449.165588,728.059875 409.422424,708.779968 373.842133,681.895752 
	C358.615631,670.390747 344.678345,657.517578 334.295624,641.284241 
	C317.148468,614.474792 319.261047,587.213745 340.216187,563.232422 
	C352.359161,549.335815 367.351349,539.061218 383.641968,530.921265 
	C406.523407,519.487976 429.773590,508.781036 452.998199,498.049408 
	C476.375122,487.247437 497.745575,473.731171 514.547180,453.869659 
	C522.920227,443.971680 529.996033,433.160889 531.226562,419.908386 
	C531.747314,414.299713 531.065186,408.179474 529.284485,402.840485 
	C525.608887,391.820312 519.044373,388.654785 507.605621,390.938446 
	C476.745728,397.099274 445.417419,398.779114 414.131714,398.687195 
	C366.993713,398.548737 319.841034,397.389893 272.732635,395.640503 
	C247.628433,394.708221 222.610260,391.547760 197.541168,389.544434 
	C185.118668,388.551727 172.590210,388.495544 160.262024,386.864349 
	C153.313950,385.945007 146.198761,383.586792 139.991226,380.303192 
	C124.345573,372.027039 107.920631,366.665039 90.468582,364.178192 
	C88.831917,363.944946 86.895950,363.854797 85.699951,362.925079 
	C83.685936,361.359467 80.963486,359.326630 80.691986,357.213654 
	C80.259789,353.850128 82.921295,351.082642 86.497322,350.972412 
	C91.936478,350.804749 97.421967,351.088348 102.842636,351.631104 
	C110.162277,352.364044 117.439095,353.524506 124.734283,354.501556 
	C124.966850,353.833038 125.199409,353.164520 125.431969,352.496002 
	C123.427429,351.400238 121.504974,350.105713 119.405914,349.238861 
	C92.939240,338.308990 70.975380,321.570129 53.806129,298.605743 
	C53.308083,297.939606 52.374313,297.327087 52.329845,296.644836 
	C52.194733,294.571808 51.635647,291.944092 52.639141,290.510712 
	C54.295521,288.144775 56.565941,289.341980 58.563164,291.105011 
	C75.772255,306.296417 94.835106,318.703918 115.643616,328.355408 
	C165.077469,351.283997 216.887466,361.166138 271.408600,357.497375 
	C338.669006,352.971436 402.709961,335.866272 464.994446,310.705536 
	C500.779205,296.249756 537.632996,284.810150 575.648926,277.649231 
	C584.725586,275.939484 594.063904,275.618774 603.272827,274.660156 
	C600.351624,266.033630 592.812866,262.821259 583.881409,262.009766 
	C567.595642,260.530060 551.732178,263.917999 535.788940,266.496338 
	C504.803650,271.507233 475.410065,282.500031 445.152283,290.213440 
	C431.014923,293.817383 416.542175,296.649811 402.046875,298.200500 
	C362.996918,302.378052 323.614197,271.950531 317.430817,233.286514 
	C316.454041,227.178940 317.294037,220.780823 317.294037,214.332275 
	C365.525238,226.757599 411.952667,222.072723 457.129303,202.148911 
	C442.986481,200.464615 428.971436,198.749176 421.035431,184.724442 
	C416.332977,176.414108 416.147858,162.857758 420.284302,151.865692 
	C421.591064,152.967987 422.825104,153.966675 424.013123,155.017365 
	C440.884644,169.938614 459.953674,173.452103 481.181976,166.178864 
	C495.197510,161.376846 507.931824,154.097687 519.401611,144.956955 
	C540.498657,128.143814 561.403931,111.063667 581.867310,93.487335 
	C617.226990,63.116402 658.582581,50.663933 704.459717,51.063808 
	C713.550964,51.143051 722.275085,53.012089 730.342590,57.501286 
	C736.200256,60.760853 740.012756,65.104904 738.982178,72.197456 
	C766.208435,81.059723 778.275757,101.821594 783.788818,128.300690 
z"/>
<path fill="#010101" opacity="1.000000" stroke="none" 
	d="
M1694.883301,549.000000 
	C1694.278809,535.550598 1695.127075,522.332275 1692.789307,509.703766 
	C1686.542725,475.960724 1655.779175,452.443024 1620.592651,453.006989 
	C1587.258057,453.541229 1557.760620,478.692108 1551.959595,511.795624 
	C1550.989014,517.334229 1550.678711,523.051086 1550.671509,528.686401 
	C1550.586426,595.509705 1550.616821,662.333191 1550.616943,729.156616 
	C1550.616943,730.958740 1550.616943,732.760864 1550.616943,734.837769 
	C1512.996094,734.837769 1475.764038,734.837769 1438.280396,734.837769 
	C1438.280396,552.734619 1438.280396,370.668701 1438.280396,188.283981 
	C1475.465088,188.283981 1512.706299,188.283981 1550.536133,188.283981 
	C1550.536133,252.356247 1550.536133,316.533813 1550.536133,380.380920 
	C1561.182129,374.671539 1571.051880,367.963684 1581.898438,363.802185 
	C1633.438477,344.028168 1684.886963,341.873169 1733.621460,371.253906 
	C1781.016357,399.827026 1806.258057,443.001862 1806.930298,498.508209 
	C1807.872559,576.318604 1807.168091,654.148926 1807.168091,731.970703 
	C1807.168091,732.794128 1807.168091,733.617493 1807.168091,734.778931 
	C1769.813232,734.778931 1732.600830,734.778931 1694.883179,734.778931 
	C1694.883179,673.028259 1694.883179,611.264099 1694.883301,549.000000 
z"/>
<path fill="#010101" opacity="1.000000" stroke="none" 
	d="
M2074.998535,349.713318 
	C2115.868164,349.905853 2151.007568,364.449890 2183.072266,389.427185 
	C2183.072266,379.222809 2183.072266,369.690674 2183.072266,359.772400 
	C2219.099609,359.772400 2254.653564,359.772400 2290.523926,359.772400 
	C2290.523926,484.688171 2290.523926,609.574524 2290.523926,734.789185 
	C2254.982910,734.789185 2219.419189,734.789185 2183.318359,734.789185 
	C2183.318359,724.256287 2183.318359,713.714050 2183.318359,702.269165 
	C2178.909424,705.639221 2175.321777,708.489014 2171.625732,711.190735 
	C2114.796875,752.730286 2053.884277,755.130005 1991.873291,726.363098 
	C1928.238403,696.842896 1890.459839,645.689758 1879.385376,576.350098 
	C1862.640747,471.508270 1934.984985,371.251373 2039.742432,352.951294 
	C2051.168213,350.955322 2062.906006,350.746582 2074.998535,349.713318 
M2051.631836,460.031403 
	C2010.263428,478.390381 1987.329590,519.087646 1994.175903,561.990295 
	C2002.244873,612.554321 2049.350586,647.613220 2100.099609,640.825256 
	C2150.406250,634.096497 2186.316162,588.441956 2181.212646,537.700989 
	C2174.946045,475.396027 2110.326416,436.329163 2051.631836,460.031403 
z"/>
<path fill="#000000" opacity="1.000000" stroke="none" 
	d="
M3226.000244,654.000000 
	C3226.000244,681.151001 3226.000244,707.802002 3226.000244,734.784668 
	C3190.283447,734.784668 3154.741699,734.784668 3118.690918,734.784668 
	C3118.690918,724.232239 3118.690918,713.695557 3118.690918,702.201904 
	C3114.812744,705.180420 3111.740479,707.600403 3108.606445,709.937866 
	C3076.913574,733.575378 3041.764404,746.430176 3001.756836,744.886292 
	C2910.565186,741.366943 2832.279785,673.643921 2815.866699,583.826477 
	C2796.244873,476.449005 2865.106689,374.527588 2971.966309,353.316772 
	C3023.788086,343.030609 3071.063721,353.857239 3113.386475,385.692139 
	C3114.835205,386.781921 3116.291016,387.863068 3118.484375,389.501831 
	C3118.484375,379.185974 3118.484375,369.532440 3118.484375,359.640198 
	C3154.547607,359.640198 3189.977783,359.640198 3226.000244,359.640198 
	C3226.000244,457.646240 3226.000244,555.573120 3226.000244,654.000000 
M3017.718994,453.062744 
	C3015.071533,453.351807 3012.423096,453.631378 3009.776855,453.931274 
	C2959.088623,459.675934 2920.718994,510.875977 2929.355225,561.243225 
	C2938.595459,615.133728 2986.171875,648.960693 3040.111816,639.991516 
	C3090.083984,631.682190 3125.541016,580.139099 3115.517822,530.375610 
	C3105.994385,483.093567 3067.671631,452.489746 3017.718994,453.062744 
z"/>
<path fill="#000000" opacity="1.000000" stroke="none" 
	d="
M936.930542,294.838165 
	C936.928223,259.055542 936.928223,223.759125 936.928223,188.215118 
	C1084.279541,188.215118 1231.322510,188.215118 1378.571533,188.215118 
	C1378.571533,224.402252 1378.571533,260.341156 1378.571533,296.767548 
	C1325.349487,296.767548 1272.122192,296.767548 1218.287231,296.767548 
	C1218.287231,442.948151 1218.287231,588.643494 1218.287231,734.706909 
	C1177.729736,734.706909 1137.779175,734.706909 1097.424072,734.706909 
	C1097.424072,589.164795 1097.424072,443.420441 1097.424072,297.033905 
	C1095.262085,297.033905 1093.496338,297.033905 1091.730591,297.033905 
	C1041.734619,297.033905 991.738647,297.049805 941.742798,296.962036 
	C940.138550,296.959229 938.536194,295.894257 936.930542,294.838165 
z"/>
<path fill="#010101" opacity="1.000000" stroke="none" 
	d="
M2515.838867,355.000092 
	C2515.838867,481.784912 2515.838867,608.069702 2515.838867,734.736816 
	C2478.289551,734.736816 2440.943359,734.736816 2403.378418,734.736816 
	C2403.378418,552.594604 2403.378418,370.554077 2403.378418,188.239044 
	C2440.758545,188.239044 2478.001221,188.239044 2515.838867,188.239044 
	C2515.838867,243.658859 2515.838867,299.079468 2515.838867,355.000092 
z"/>
<path fill="#010101" opacity="1.000000" stroke="none" 
	d="
M2740.839600,542.000122 
	C2740.832764,606.141174 2740.826172,669.782227 2740.811279,733.423279 
	C2740.811279,733.738892 2740.693359,734.054504 2740.555908,734.743530 
	C2703.280029,734.743530 2665.937500,734.743530 2628.376953,734.743530 
	C2628.376953,609.758545 2628.376953,484.882782 2628.376953,359.693329 
	C2665.744629,359.693329 2702.975342,359.693329 2740.839600,359.693329 
	C2740.839600,420.366730 2740.839600,480.933380 2740.839600,542.000122 
z"/>
<path fill="#010101" opacity="1.000000" stroke="none" 
	d="
M2629.440430,271.494080 
	C2607.986816,231.854050 2631.939209,187.175720 2670.875488,178.708420 
	C2704.979004,171.292053 2738.748779,193.067978 2746.457520,227.852158 
	C2753.727295,260.655884 2731.817627,294.608002 2698.607178,302.002594 
	C2670.734619,308.208618 2644.383789,296.665009 2629.440430,271.494080 
z"/>
<path fill="#FEFEFE" opacity="1.000000" stroke="none" 
	d="
M2052.001953,459.919891 
	C2110.326416,436.329163 2174.946045,475.396027 2181.212646,537.700989 
	C2186.316162,588.441956 2150.406250,634.096497 2100.099609,640.825256 
	C2049.350586,647.613220 2002.244873,612.554321 1994.175903,561.990295 
	C1987.329590,519.087646 2010.263428,478.390381 2052.001953,459.919891 
z"/>
<path fill="#FEFEFE" opacity="1.000000" stroke="none" 
	d="
M3018.194824,453.049255 
	C3067.671631,452.489746 3105.994385,483.093567 3115.517822,530.375610 
	C3125.541016,580.139099 3090.083984,631.682190 3040.111816,639.991516 
	C2986.171875,648.960693 2938.595459,615.133728 2929.355225,561.243225 
	C2920.718994,510.875977 2959.088623,459.675934 3009.776855,453.931274 
	C3012.423096,453.631378 3015.071533,453.351807 3018.194824,453.049255 
z"/>
</svg>